<?xml version="1.0" encoding="utf-8"?>
<!-- Generator: Adobe Illustrator 15.0.0, SVG Export Plug-In . SVG Version: 6.00 Build 0)  -->
<!DOCTYPE svg PUBLIC "-//W3C//DTD SVG 1.1//EN" "http://www.w3.org/Graphics/SVG/1.1/DTD/svg11.dtd">
<svg version="1.1" id="Layer_1" xmlns="http://www.w3.org/2000/svg" xmlns:xlink="http://www.w3.org/1999/xlink" x="0px" y="0px"
	 width="612px" height="792px" viewBox="0 0 612 792" enable-background="new 0 0 612 792" xml:space="preserve">
<polyline fill="none" stroke="#000000" stroke-miterlimit="10" points="-31.393,-13.038 -15.71,-40.201 15.655,-40.201 
	31.337,-13.038 "/>
<polygon fill="none" stroke="#000000" stroke-miterlimit="10" points="-31.393,24.672 -42.292,5.793 -31.393,-13.085 
	-9.594,-13.085 "/>
<polygon fill="none" stroke="#000000" stroke-miterlimit="10" points="9.46,-13.085 31.259,-13.085 42.158,5.793 31.259,24.672 "/>
<polygon fill="none" stroke="#000000" stroke-miterlimit="10" points="-42.292,-6.536 -42.292,-40.201 -20.493,-40.201 "/>
<polygon fill="none" stroke="#000000" stroke-miterlimit="10" points="42.237,-6.536 42.237,-40.201 20.438,-40.201 "/>
<polygon fill="none" stroke="#000000" stroke-miterlimit="10" points="-42.292,13.502 -25.943,40.921 -42.292,40.921 "/>
<polygon fill="none" stroke="#000000" stroke-miterlimit="10" points="42.158,40.921 42.158,13.502 25.809,40.921 "/>
<polygon fill="none" stroke="#000000" stroke-miterlimit="10" points="20.151,40.921 29.276,27.212 4.181,-13.038 -5.114,-13.038 
	-29.28,27.212 -20.493,40.921 "/>
</svg>
